# xmcd CD database file
#
# Track frame offsets:
#	150
#	17124
#	34264
#	51436
#	64973
#	81825
#	99114
#	118127
#	138359
#	154167
#
# Disc length: 2294 seconds
#
# Revision: 3
# Processed by: cddbd v1.5.2PL0 Copyright (c) Steve Scherf et al.
# Submitted via: CDex 2.21
#
DISCID=8508f40a
DTITLE=Travis Tritt - No More Looking over My Shoulder
DYEAR=1998
DGENRE=Country
TTITLE0=No More Looking over My Shoulder
TTITLE1=Rough Around the Edges
TTITLE2=If I Lost You
TTITLE3=Girls Like That
TTITLE4=For You
TTITLE5=I'm All the Man
TTITLE6=Tougher Than the Rest
TTITLE7=Start the Car
TTITLE8=Mission of Love
TTITLE9=The Road to You
EXTD=YEAR: 1998
EXTT0=
EXTT1=
EXTT2=
EXTT3=
EXTT4=
EXTT5=
EXTT6=
EXTT7=
EXTT8=
EXTT9=
PLAYORDER=
